<mxfile host="app.diagrams.net" modified="2023-04-06T20:10:32.595Z" agent="Mozilla/5.0 (Windows NT 10.0; Win64; x64) AppleWebKit/537.36 (KHTML, like Gecko) Chrome/111.0.0.0 Safari/537.36" etag="Ek3_6oWt1vIvg-e8innh" version="21.1.4" type="github">
  <diagram name="Страница 1" id="HaqHr7datS-S6JQ_34eg">
    <mxGraphModel dx="1702" dy="451" grid="1" gridSize="10" guides="1" tooltips="1" connect="1" arrows="1" fold="1" page="1" pageScale="1" pageWidth="827" pageHeight="1169" math="0" shadow="0">
      <root>
        <mxCell id="0" />
        <mxCell id="1" parent="0" />
        <mxCell id="sSVKV6Z9X-DRzIi5GmWs-9" value="Past&amp;nbsp;" style="swimlane;fontStyle=0;childLayout=stackLayout;horizontal=1;startSize=30;horizontalStack=0;resizeParent=1;resizeParentMax=0;resizeLast=0;collapsible=1;marginBottom=0;whiteSpace=wrap;html=1;" vertex="1" parent="1">
          <mxGeometry x="120" y="40" width="150" height="150" as="geometry" />
        </mxCell>
        <mxCell id="sSVKV6Z9X-DRzIi5GmWs-10" value="Past Simple" style="text;strokeColor=none;fillColor=none;align=left;verticalAlign=middle;spacingLeft=4;spacingRight=4;overflow=hidden;points=[[0,0.5],[1,0.5]];portConstraint=eastwest;rotatable=0;whiteSpace=wrap;html=1;" vertex="1" parent="sSVKV6Z9X-DRzIi5GmWs-9">
          <mxGeometry y="30" width="150" height="30" as="geometry" />
        </mxCell>
        <mxCell id="sSVKV6Z9X-DRzIi5GmWs-11" value="Past Continuous" style="text;strokeColor=none;fillColor=none;align=left;verticalAlign=middle;spacingLeft=4;spacingRight=4;overflow=hidden;points=[[0,0.5],[1,0.5]];portConstraint=eastwest;rotatable=0;whiteSpace=wrap;html=1;" vertex="1" parent="sSVKV6Z9X-DRzIi5GmWs-9">
          <mxGeometry y="60" width="150" height="30" as="geometry" />
        </mxCell>
        <mxCell id="sSVKV6Z9X-DRzIi5GmWs-12" value="Past Perfect" style="text;strokeColor=none;fillColor=none;align=left;verticalAlign=middle;spacingLeft=4;spacingRight=4;overflow=hidden;points=[[0,0.5],[1,0.5]];portConstraint=eastwest;rotatable=0;whiteSpace=wrap;html=1;" vertex="1" parent="sSVKV6Z9X-DRzIi5GmWs-9">
          <mxGeometry y="90" width="150" height="30" as="geometry" />
        </mxCell>
        <mxCell id="sSVKV6Z9X-DRzIi5GmWs-18" value="Past Prefect Continuous" style="text;strokeColor=none;fillColor=none;align=left;verticalAlign=middle;spacingLeft=4;spacingRight=4;overflow=hidden;points=[[0,0.5],[1,0.5]];portConstraint=eastwest;rotatable=0;whiteSpace=wrap;html=1;" vertex="1" parent="sSVKV6Z9X-DRzIi5GmWs-9">
          <mxGeometry y="120" width="150" height="30" as="geometry" />
        </mxCell>
        <mxCell id="sSVKV6Z9X-DRzIi5GmWs-19" value="Present" style="swimlane;fontStyle=0;childLayout=stackLayout;horizontal=1;startSize=30;horizontalStack=0;resizeParent=1;resizeParentMax=0;resizeLast=0;collapsible=1;marginBottom=0;whiteSpace=wrap;html=1;" vertex="1" parent="1">
          <mxGeometry x="360" y="40" width="170" height="150" as="geometry" />
        </mxCell>
        <mxCell id="sSVKV6Z9X-DRzIi5GmWs-20" value="Present Simple" style="text;strokeColor=none;fillColor=none;align=left;verticalAlign=middle;spacingLeft=4;spacingRight=4;overflow=hidden;points=[[0,0.5],[1,0.5]];portConstraint=eastwest;rotatable=0;whiteSpace=wrap;html=1;" vertex="1" parent="sSVKV6Z9X-DRzIi5GmWs-19">
          <mxGeometry y="30" width="170" height="30" as="geometry" />
        </mxCell>
        <mxCell id="sSVKV6Z9X-DRzIi5GmWs-21" value="Present Continuous" style="text;strokeColor=none;fillColor=none;align=left;verticalAlign=middle;spacingLeft=4;spacingRight=4;overflow=hidden;points=[[0,0.5],[1,0.5]];portConstraint=eastwest;rotatable=0;whiteSpace=wrap;html=1;" vertex="1" parent="sSVKV6Z9X-DRzIi5GmWs-19">
          <mxGeometry y="60" width="170" height="30" as="geometry" />
        </mxCell>
        <mxCell id="sSVKV6Z9X-DRzIi5GmWs-22" value="Present Perfect" style="text;strokeColor=none;fillColor=none;align=left;verticalAlign=middle;spacingLeft=4;spacingRight=4;overflow=hidden;points=[[0,0.5],[1,0.5]];portConstraint=eastwest;rotatable=0;whiteSpace=wrap;html=1;" vertex="1" parent="sSVKV6Z9X-DRzIi5GmWs-19">
          <mxGeometry y="90" width="170" height="30" as="geometry" />
        </mxCell>
        <mxCell id="sSVKV6Z9X-DRzIi5GmWs-23" value="Present Prefect Continuous" style="text;strokeColor=none;fillColor=none;align=left;verticalAlign=middle;spacingLeft=4;spacingRight=4;overflow=hidden;points=[[0,0.5],[1,0.5]];portConstraint=eastwest;rotatable=0;whiteSpace=wrap;html=1;" vertex="1" parent="sSVKV6Z9X-DRzIi5GmWs-19">
          <mxGeometry y="120" width="170" height="30" as="geometry" />
        </mxCell>
        <mxCell id="sSVKV6Z9X-DRzIi5GmWs-24" value="Future" style="swimlane;fontStyle=0;childLayout=stackLayout;horizontal=1;startSize=30;horizontalStack=0;resizeParent=1;resizeParentMax=0;resizeLast=0;collapsible=1;marginBottom=0;whiteSpace=wrap;html=1;" vertex="1" parent="1">
          <mxGeometry x="619" y="40" width="170" height="150" as="geometry" />
        </mxCell>
        <mxCell id="sSVKV6Z9X-DRzIi5GmWs-25" value="Future Simple" style="text;strokeColor=none;fillColor=none;align=left;verticalAlign=middle;spacingLeft=4;spacingRight=4;overflow=hidden;points=[[0,0.5],[1,0.5]];portConstraint=eastwest;rotatable=0;whiteSpace=wrap;html=1;" vertex="1" parent="sSVKV6Z9X-DRzIi5GmWs-24">
          <mxGeometry y="30" width="170" height="30" as="geometry" />
        </mxCell>
        <mxCell id="sSVKV6Z9X-DRzIi5GmWs-26" value="Future Continuous" style="text;strokeColor=none;fillColor=none;align=left;verticalAlign=middle;spacingLeft=4;spacingRight=4;overflow=hidden;points=[[0,0.5],[1,0.5]];portConstraint=eastwest;rotatable=0;whiteSpace=wrap;html=1;" vertex="1" parent="sSVKV6Z9X-DRzIi5GmWs-24">
          <mxGeometry y="60" width="170" height="30" as="geometry" />
        </mxCell>
        <mxCell id="sSVKV6Z9X-DRzIi5GmWs-27" value="Future Perfect" style="text;strokeColor=none;fillColor=none;align=left;verticalAlign=middle;spacingLeft=4;spacingRight=4;overflow=hidden;points=[[0,0.5],[1,0.5]];portConstraint=eastwest;rotatable=0;whiteSpace=wrap;html=1;" vertex="1" parent="sSVKV6Z9X-DRzIi5GmWs-24">
          <mxGeometry y="90" width="170" height="30" as="geometry" />
        </mxCell>
        <mxCell id="sSVKV6Z9X-DRzIi5GmWs-28" value="Future Perfect Continuous" style="text;strokeColor=none;fillColor=none;align=left;verticalAlign=middle;spacingLeft=4;spacingRight=4;overflow=hidden;points=[[0,0.5],[1,0.5]];portConstraint=eastwest;rotatable=0;whiteSpace=wrap;html=1;" vertex="1" parent="sSVKV6Z9X-DRzIi5GmWs-24">
          <mxGeometry y="120" width="170" height="30" as="geometry" />
        </mxCell>
        <mxCell id="sSVKV6Z9X-DRzIi5GmWs-29" value="Past Simple" style="swimlane;whiteSpace=wrap;html=1;" vertex="1" parent="1">
          <mxGeometry x="40" y="220" width="260" height="200" as="geometry" />
        </mxCell>
        <mxCell id="sSVKV6Z9X-DRzIi5GmWs-32" value="" style="shape=umlActor;verticalLabelPosition=bottom;verticalAlign=top;html=1;outlineConnect=0;" vertex="1" parent="sSVKV6Z9X-DRzIi5GmWs-29">
          <mxGeometry x="220" y="40" width="20" height="50" as="geometry" />
        </mxCell>
        <mxCell id="sSVKV6Z9X-DRzIi5GmWs-33" value="" style="endArrow=classic;html=1;rounded=0;exitX=0.375;exitY=0.729;exitDx=0;exitDy=0;exitPerimeter=0;" edge="1" parent="sSVKV6Z9X-DRzIi5GmWs-29" source="sSVKV6Z9X-DRzIi5GmWs-39">
          <mxGeometry width="50" height="50" relative="1" as="geometry">
            <mxPoint x="10" y="64.58" as="sourcePoint" />
            <mxPoint x="200" y="64.58" as="targetPoint" />
          </mxGeometry>
        </mxCell>
        <mxCell id="sSVKV6Z9X-DRzIi5GmWs-35" value="" style="rounded=1;whiteSpace=wrap;html=1;strokeWidth=2;fillWeight=4;hachureGap=8;hachureAngle=45;fillColor=#1ba1e2;sketch=1;" vertex="1" parent="sSVKV6Z9X-DRzIi5GmWs-29">
          <mxGeometry x="60" y="55" width="80" height="20" as="geometry" />
        </mxCell>
        <UserObject label="time" placeholders="1" name="Variable" id="sSVKV6Z9X-DRzIi5GmWs-39">
          <mxCell style="text;html=1;strokeColor=none;fillColor=none;align=center;verticalAlign=middle;whiteSpace=wrap;overflow=hidden;" vertex="1" parent="sSVKV6Z9X-DRzIi5GmWs-29">
            <mxGeometry x="-20" y="50" width="80" height="20" as="geometry" />
          </mxCell>
        </UserObject>
        <UserObject label="I played football yesterday" placeholders="1" name="Variable" id="sSVKV6Z9X-DRzIi5GmWs-41">
          <mxCell style="text;html=1;strokeColor=none;fillColor=none;align=center;verticalAlign=middle;whiteSpace=wrap;overflow=hidden;" vertex="1" parent="sSVKV6Z9X-DRzIi5GmWs-29">
            <mxGeometry y="120" width="160" height="20" as="geometry" />
          </mxCell>
        </UserObject>
        <UserObject label="She ate breakfast an hour ago" placeholders="1" name="Variable" id="sSVKV6Z9X-DRzIi5GmWs-42">
          <mxCell style="text;html=1;strokeColor=none;fillColor=none;align=center;verticalAlign=middle;whiteSpace=wrap;overflow=hidden;" vertex="1" parent="sSVKV6Z9X-DRzIi5GmWs-29">
            <mxGeometry y="180" width="180" height="20" as="geometry" />
          </mxCell>
        </UserObject>
        <UserObject label="глагол + -ed" placeholders="1" name="Variable" id="sSVKV6Z9X-DRzIi5GmWs-45">
          <mxCell style="text;html=1;strokeColor=none;fillColor=none;align=center;verticalAlign=middle;whiteSpace=wrap;overflow=hidden;fontStyle=1;fontColor=#f43e10;fontSize=14;" vertex="1" parent="sSVKV6Z9X-DRzIi5GmWs-29">
            <mxGeometry x="-50" y="100" width="190" height="20" as="geometry" />
          </mxCell>
        </UserObject>
        <UserObject label="&lt;font style=&quot;font-size: 10px;&quot;&gt;неправ. глаголы: форма прошедшего времени&lt;/font&gt;" placeholders="1" name="Variable" id="sSVKV6Z9X-DRzIi5GmWs-47">
          <mxCell style="text;html=1;strokeColor=none;fillColor=none;align=left;verticalAlign=middle;whiteSpace=wrap;overflow=hidden;fontStyle=1;fontColor=#f43e10;fontSize=17;" vertex="1" parent="sSVKV6Z9X-DRzIi5GmWs-29">
            <mxGeometry x="5" y="140" width="215" height="40" as="geometry" />
          </mxCell>
        </UserObject>
        <mxCell id="sSVKV6Z9X-DRzIi5GmWs-30" value="Present Simple" style="swimlane;whiteSpace=wrap;html=1;" vertex="1" parent="1">
          <mxGeometry x="310" y="220" width="270" height="200" as="geometry" />
        </mxCell>
        <mxCell id="sSVKV6Z9X-DRzIi5GmWs-31" value="Future Simple" style="swimlane;whiteSpace=wrap;html=1;" vertex="1" parent="1">
          <mxGeometry x="590" y="220" width="260" height="200" as="geometry" />
        </mxCell>
      </root>
    </mxGraphModel>
  </diagram>
</mxfile>
